<?xml version="1.0" encoding="UTF-8" standalone="no"?>
<!-- Created with Inkscape (http://www.inkscape.org/) -->

<svg
   version="1.1"
   id="svg2"
   width="5333.3335"
   height="5333.3335"
   viewBox="0 0 5333.3335 5333.3335"
   sodipodi:docname="vecteezy_user-icon-design_13978277.eps"
   xmlns:inkscape="http://www.inkscape.org/namespaces/inkscape"
   xmlns:sodipodi="http://sodipodi.sourceforge.net/DTD/sodipodi-0.dtd"
   xmlns="http://www.w3.org/2000/svg"
   xmlns:svg="http://www.w3.org/2000/svg">
  <defs
     id="defs6" />
  <sodipodi:namedview
     id="namedview4"
     pagecolor="#ffffff"
     bordercolor="#000000"
     borderopacity="0.25"
     inkscape:showpageshadow="2"
     inkscape:pageopacity="0.0"
     inkscape:pagecheckerboard="0"
     inkscape:deskcolor="#d1d1d1" />
  <g
     id="g8"
     inkscape:groupmode="layer"
     inkscape:label="ink_ext_XXXXXX"
     transform="matrix(1.3333333,0,0,-1.3333333,0,5333.3333)">
    <g
       id="g10"
       transform="scale(0.1)">
      <path
         d="m 19993.2,35352 c -8467.5,0 -15356.17,-6888.7 -15356.17,-15356.2 0,-8467.4 6888.67,-15356.1 15356.17,-15356.1 8467.4,0 15356.1,6888.7 15356.1,15356.1 0,8467.5 -6888.7,15356.2 -15356.1,15356.2 z m 0,-31992 c -9190,5.2 -16635.67,7459.3 -16630.51,16649.2 3.74,6680.6 4002.52,12711.2 10154.91,15314.8 8465.5,3576.3 18227.3,-387.1 21803.7,-8852.6 C 38897.6,18005.9 34934.2,8244.1 26468.7,4667.7 24420.2,3800.5 22217.7,3355.8 19993.2,3360"
         style="fill:#000000;fill-opacity:1;fill-rule:nonzero;stroke:none"
         id="path12" />
      <path
         d="m 8733.99,7992.9 c -353.37,0 -639.83,286.4 -639.83,639.8 v 307.9 c -0.22,5319.6 4311.94,9632.2 9631.54,9632.4 h 4534.1 c 5319.6,-0.5 9631.9,-4312.7 9632.4,-9632.4 v -307.1 c 0,-353.4 -286.5,-639.8 -639.9,-639.8 -353.4,0 -639.8,286.4 -639.8,639.8 v 307.1 c 0,4605.7 -3747.1,8352.7 -8352.7,8352.7 h -4534.1 c -4605.2,0 -8351.87,-3747 -8351.87,-8352.7 v -307.9 c 0,-353.4 -286.46,-639.8 -639.84,-639.8"
         style="fill:#000000;fill-opacity:1;fill-rule:nonzero;stroke:none"
         id="path14" />
      <path
         d="m 19993.2,31364.6 c -2487.3,0.2 -4503.9,-2016 -4504.1,-4503.3 -0.2,-2487.3 2015.9,-4503.8 4503.3,-4504.1 2487.3,-0.2 4503.8,2016 4504,4503.3 0,0.1 0,0.3 0,0.4 -2.6,2486.1 -2017.2,4500.8 -4503.2,4503.7 z m 0,-10286.6 c -3188.8,0 -5783,2594.1 -5783,5782.9 0,3188.8 2594.2,5783.4 5783,5783.4 3188.8,0 5782.9,-2594.6 5782.9,-5783.4 0,-3188.8 -2594.1,-5782.9 -5782.9,-5782.9"
         style="fill:#000000;fill-opacity:1;fill-rule:nonzero;stroke:none"
         id="path16" />
    </g>
  </g>
</svg>
